<svg width="20" height="20" viewBox="0 0 20 20" fill="none" xmlns="http://www.w3.org/2000/svg">
<path d="M17.8625 15.714C17.3711 15.2433 16.8928 14.7591 16.4281 14.2619C16.0378 13.8653 15.8027 13.5767 15.8027 13.5767L12.8646 12.174C14.0409 10.84 14.6901 9.12285 14.6905 7.34445C14.6905 3.29556 11.3956 0 7.34523 0C3.29486 0 0 3.29556 0 7.34445C0 11.3933 3.29486 14.6889 7.34523 14.6889C9.19517 14.6889 10.8814 13.9964 12.1752 12.8643L13.5782 15.8021C13.5782 15.8021 13.8667 16.0371 14.2634 16.4274C14.6695 16.8083 15.2036 17.3235 15.7156 17.8617L17.1406 19.3222L17.7744 20L20 17.7746L19.3221 17.1409C18.9244 16.7506 18.3935 16.2323 17.8625 15.714ZM7.34523 12.5905C4.45226 12.5905 2.09864 10.2371 2.09864 7.34445C2.09864 4.45179 4.45226 2.09842 7.34523 2.09842C10.2382 2.09842 12.5918 4.45179 12.5918 7.34445C12.5918 10.2371 10.2382 12.5905 7.34523 12.5905Z" fill="#A29C9C"/>
</svg>
