<svg width="13" height="8" viewBox="0 0 13 8" fill="none" xmlns="http://www.w3.org/2000/svg">
<path d="M12.5093 1.65079C12.8687 1.23147 12.8201 0.600166 12.4008 0.240743C11.9815 -0.118679 11.3502 -0.0701172 10.9907 0.349209L12.5093 1.65079ZM2.00926 0.349209C1.64983 -0.0701172 1.01853 -0.118679 0.599209 0.240743C0.179883 0.600166 0.131321 1.23147 0.490743 1.65079L2.00926 0.349209ZM6.27222 6.85926L5.51297 7.51005L6.27222 6.85926ZM10.9907 0.349209L5.96852 6.20847L7.48703 7.51005L12.5093 1.65079L10.9907 0.349209ZM7.03148 6.20847L2.00926 0.349209L0.490743 1.65079L5.51297 7.51005L7.03148 6.20847ZM5.96852 6.20847C6.24789 5.88254 6.75211 5.88254 7.03148 6.20847L5.51297 7.51005C6.03179 8.11535 6.96821 8.11535 7.48703 7.51005L5.96852 6.20847Z" fill="#828282"/>
</svg>
