<svg width="18" height="21" viewBox="0 0 18 21" fill="none" xmlns="http://www.w3.org/2000/svg">
<path fill-rule="evenodd" clip-rule="evenodd" d="M5 4C5 1.79086 6.79086 0 9 0H14C16.2091 0 18 1.79086 18 4V14.0514C18 15.6802 16.1571 16.626 14.8338 15.6762L13 14.3601V18.0514C13 19.6802 11.1571 20.626 9.83385 19.6762L6.5 17.2835L3.16615 19.6762C1.84287 20.626 0 19.6802 0 18.0514V8C0 5.79086 1.79086 4 4 4H5ZM7 4C7 2.89543 7.89543 2 9 2H14C15.1046 2 16 2.89543 16 4V14.0514L13 11.8983V8C13 5.79086 11.2091 4 9 4H7ZM4 6C2.89543 6 2 6.89543 2 8V18.0514L5.33385 15.6587C6.03082 15.1585 6.96918 15.1585 7.66615 15.6587L11 18.0514V8C11 6.89543 10.1046 6 9 6H4Z" fill="#828282"/>
</svg>
