<svg width="16" height="18" viewBox="0 0 16 18" fill="none" xmlns="http://www.w3.org/2000/svg">
<path fill-rule="evenodd" clip-rule="evenodd" d="M3 0C1.34315 0 0 1.34315 0 3V15C0 16.6569 1.34315 18 3 18H13C14.6569 18 16 16.6569 16 15V3C16 1.34315 14.6569 0 13 0H3ZM14 3C14 2.44772 13.5523 2 13 2H3C2.44772 2 2 2.44772 2 3V11H4.93637C5.44956 11 5.94687 11.1772 6.34348 11.492C7.30817 12.2576 8.68454 12.2634 9.63515 11.5089C10.0504 11.1794 10.5649 11 11.0951 11H14V3ZM2 13V15C2 15.5523 2.44772 16 3 16H13C13.5523 16 14 15.5523 14 15V13H11.0951C11.0164 13 10.9401 13.0266 10.8785 13.0755C9.18568 14.419 6.77889 14.3909 5.10017 13.0585C5.05181 13.0202 4.99126 13 4.93637 13H2ZM4 8C4 7.44772 4.44772 7 5 7H11C11.5523 7 12 7.44772 12 8C12 8.55229 11.5523 9 11 9H5C4.44772 9 4 8.55229 4 8ZM5 4C4.44772 4 4 4.44772 4 5C4 5.55228 4.44772 6 5 6H11C11.5523 6 12 5.55228 12 5C12 4.44772 11.5523 4 11 4H5Z" fill="#828282"/>
</svg>
