<svg width="24" height="24" viewBox="0 0 24 24" fill="none" xmlns="http://www.w3.org/2000/svg">
<path d="M13 8C13 7.44772 12.5523 7 12 7C11.4477 7 11 7.44772 11 8H13ZM12 12H11V12.4142L11.2929 12.7071L12 12ZM14.2929 15.7071C14.6834 16.0976 15.3166 16.0976 15.7071 15.7071C16.0976 15.3166 16.0976 14.6834 15.7071 14.2929L14.2929 15.7071ZM11 8V12H13V8H11ZM11.2929 12.7071L14.2929 15.7071L15.7071 14.2929L12.7071 11.2929L11.2929 12.7071Z" fill="black"/>
<circle cx="12" cy="12" r="9" stroke="black" stroke-width="2"/>
</svg>
