<svg width="16" height="15" viewBox="0 0 16 15" fill="none" xmlns="http://www.w3.org/2000/svg">
<path fill-rule="evenodd" clip-rule="evenodd" d="M2.75 0.416504C1.50736 0.416504 0.5 1.3679 0.5 2.5415V4.6665C0.5 5.84011 1.50736 6.7915 2.75 6.7915H5C6.24264 6.7915 7.25 5.84011 7.25 4.6665V2.5415C7.25 1.3679 6.24264 0.416504 5 0.416504H2.75ZM2 2.5415C2 2.1503 2.33579 1.83317 2.75 1.83317H5C5.41421 1.83317 5.75 2.1503 5.75 2.5415V4.6665C5.75 5.05771 5.41421 5.37484 5 5.37484H2.75C2.33579 5.37484 2 5.05771 2 4.6665V2.5415Z" fill="#828282"/>
<path fill-rule="evenodd" clip-rule="evenodd" d="M11 0.416504C9.75736 0.416504 8.75 1.3679 8.75 2.5415V4.6665C8.75 5.84011 9.75736 6.7915 11 6.7915H13.25C14.4926 6.7915 15.5 5.84011 15.5 4.6665V2.5415C15.5 1.3679 14.4926 0.416504 13.25 0.416504H11ZM10.25 2.5415C10.25 2.1503 10.5858 1.83317 11 1.83317H13.25C13.6642 1.83317 14 2.1503 14 2.5415V4.6665C14 5.05771 13.6642 5.37484 13.25 5.37484H11C10.5858 5.37484 10.25 5.05771 10.25 4.6665V2.5415Z" fill="#828282"/>
<path fill-rule="evenodd" clip-rule="evenodd" d="M0.5 10.3332C0.5 9.15956 1.50736 8.20817 2.75 8.20817H5C6.24264 8.20817 7.25 9.15957 7.25 10.3332V12.4582C7.25 13.6318 6.24264 14.5832 5 14.5832H2.75C1.50736 14.5832 0.5 13.6318 0.5 12.4582V10.3332ZM2.75 9.62484C2.33579 9.62484 2 9.94197 2 10.3332V12.4582C2 12.8494 2.33579 13.1665 2.75 13.1665H5C5.41421 13.1665 5.75 12.8494 5.75 12.4582V10.3332C5.75 9.94197 5.41421 9.62484 5 9.62484H2.75Z" fill="#828282"/>
<path fill-rule="evenodd" clip-rule="evenodd" d="M11 8.20817C9.75736 8.20817 8.75 9.15956 8.75 10.3332V12.4582C8.75 13.6318 9.75736 14.5832 11 14.5832H13.25C14.4926 14.5832 15.5 13.6318 15.5 12.4582V10.3332C15.5 9.15957 14.4926 8.20817 13.25 8.20817H11ZM10.25 10.3332C10.25 9.94197 10.5858 9.62484 11 9.62484H13.25C13.6642 9.62484 14 9.94197 14 10.3332V12.4582C14 12.8494 13.6642 13.1665 13.25 13.1665H11C10.5858 13.1665 10.25 12.8494 10.25 12.4582V10.3332Z" fill="#828282"/>
</svg>
